<mxfile host="app.diagrams.net" modified="2022-03-13T19:39:18.440Z" agent="5.0 (Macintosh; Intel Mac OS X 10_15_7) AppleWebKit/537.36 (KHTML, like Gecko) Chrome/99.0.4844.51 Safari/537.36" etag="meM9GjwcShBxdY5mU3TX" version="17.1.2" type="github">
  <diagram id="AszipI8Qen7jwAWHFYw3" name="Page-1">
    <mxGraphModel dx="728" dy="497" grid="1" gridSize="10" guides="1" tooltips="1" connect="1" arrows="1" fold="1" page="1" pageScale="1" pageWidth="1169" pageHeight="827" math="0" shadow="0">
      <root>
        <mxCell id="0" />
        <mxCell id="1" parent="0" />
        <mxCell id="47uoucX9Yz7AY1I-daVj-1" value="&lt;span style=&quot;font-size: 16px&quot;&gt;Сотрудник службы безопасности&lt;/span&gt;" style="shape=umlActor;verticalLabelPosition=bottom;verticalAlign=top;html=1;outlineConnect=0;strokeWidth=3;" vertex="1" parent="1">
          <mxGeometry x="410" y="410" width="30" height="60" as="geometry" />
        </mxCell>
        <mxCell id="47uoucX9Yz7AY1I-daVj-2" value="&lt;font style=&quot;font-size: 16px&quot;&gt;Администратор&lt;/font&gt;" style="shape=umlActor;verticalLabelPosition=bottom;verticalAlign=top;html=1;outlineConnect=0;strokeWidth=3;" vertex="1" parent="1">
          <mxGeometry x="410" y="290" width="30" height="60" as="geometry" />
        </mxCell>
        <mxCell id="47uoucX9Yz7AY1I-daVj-4" value="" style="shape=table;html=1;whiteSpace=wrap;startSize=0;container=1;collapsible=0;childLayout=tableLayout;" vertex="1" parent="1">
          <mxGeometry x="880" width="298" height="820" as="geometry" />
        </mxCell>
        <mxCell id="47uoucX9Yz7AY1I-daVj-5" value="" style="shape=tableRow;horizontal=0;startSize=0;swimlaneHead=0;swimlaneBody=0;top=0;left=0;bottom=0;right=0;collapsible=0;dropTarget=0;fillColor=none;points=[[0,0.5],[1,0.5]];portConstraint=eastwest;" vertex="1" parent="47uoucX9Yz7AY1I-daVj-4">
          <mxGeometry width="298" height="55" as="geometry" />
        </mxCell>
        <mxCell id="47uoucX9Yz7AY1I-daVj-6" value="Прецедент" style="shape=partialRectangle;html=1;whiteSpace=wrap;connectable=0;fillColor=#eeeeee;top=0;left=0;bottom=0;right=0;overflow=hidden;strokeColor=#36393d;" vertex="1" parent="47uoucX9Yz7AY1I-daVj-5">
          <mxGeometry width="131" height="55" as="geometry">
            <mxRectangle width="131" height="55" as="alternateBounds" />
          </mxGeometry>
        </mxCell>
        <mxCell id="47uoucX9Yz7AY1I-daVj-7" value="Действующее&lt;br&gt;лицо" style="shape=partialRectangle;html=1;whiteSpace=wrap;connectable=0;fillColor=#eeeeee;top=0;left=0;bottom=0;right=0;overflow=hidden;strokeColor=#36393d;" vertex="1" parent="47uoucX9Yz7AY1I-daVj-5">
          <mxGeometry x="131" width="147" height="55" as="geometry">
            <mxRectangle width="147" height="55" as="alternateBounds" />
          </mxGeometry>
        </mxCell>
        <mxCell id="47uoucX9Yz7AY1I-daVj-8" value="" style="shape=partialRectangle;html=1;whiteSpace=wrap;connectable=0;fillColor=none;top=0;left=0;bottom=0;right=0;overflow=hidden;" vertex="1" parent="47uoucX9Yz7AY1I-daVj-5">
          <mxGeometry x="278" width="20" height="55" as="geometry">
            <mxRectangle width="20" height="55" as="alternateBounds" />
          </mxGeometry>
        </mxCell>
        <mxCell id="47uoucX9Yz7AY1I-daVj-33" value="" style="shape=tableRow;horizontal=0;startSize=0;swimlaneHead=0;swimlaneBody=0;top=0;left=0;bottom=0;right=0;collapsible=0;dropTarget=0;fillColor=none;points=[[0,0.5],[1,0.5]];portConstraint=eastwest;" vertex="1" parent="47uoucX9Yz7AY1I-daVj-4">
          <mxGeometry y="55" width="298" height="54" as="geometry" />
        </mxCell>
        <mxCell id="47uoucX9Yz7AY1I-daVj-34" value="Создание запроса на временный пропуск для себя" style="shape=partialRectangle;html=1;whiteSpace=wrap;connectable=0;fillColor=none;top=0;left=0;bottom=0;right=0;overflow=hidden;" vertex="1" parent="47uoucX9Yz7AY1I-daVj-33">
          <mxGeometry width="131" height="54" as="geometry">
            <mxRectangle width="131" height="54" as="alternateBounds" />
          </mxGeometry>
        </mxCell>
        <mxCell id="47uoucX9Yz7AY1I-daVj-35" value="Базовый пользователь" style="shape=partialRectangle;html=1;whiteSpace=wrap;connectable=0;fillColor=none;top=0;left=0;bottom=0;right=0;overflow=hidden;" vertex="1" parent="47uoucX9Yz7AY1I-daVj-33">
          <mxGeometry x="131" width="147" height="54" as="geometry">
            <mxRectangle width="147" height="54" as="alternateBounds" />
          </mxGeometry>
        </mxCell>
        <mxCell id="47uoucX9Yz7AY1I-daVj-36" value="" style="shape=partialRectangle;html=1;whiteSpace=wrap;connectable=0;fillColor=none;top=0;left=0;bottom=0;right=0;overflow=hidden;pointerEvents=1;" vertex="1" parent="47uoucX9Yz7AY1I-daVj-33">
          <mxGeometry x="278" width="20" height="54" as="geometry">
            <mxRectangle width="20" height="54" as="alternateBounds" />
          </mxGeometry>
        </mxCell>
        <mxCell id="47uoucX9Yz7AY1I-daVj-29" value="" style="shape=tableRow;horizontal=0;startSize=0;swimlaneHead=0;swimlaneBody=0;top=0;left=0;bottom=0;right=0;collapsible=0;dropTarget=0;fillColor=none;points=[[0,0.5],[1,0.5]];portConstraint=eastwest;" vertex="1" parent="47uoucX9Yz7AY1I-daVj-4">
          <mxGeometry y="109" width="298" height="55" as="geometry" />
        </mxCell>
        <mxCell id="47uoucX9Yz7AY1I-daVj-30" value="Просмотр статуса своих пропусков" style="shape=partialRectangle;html=1;whiteSpace=wrap;connectable=0;fillColor=none;top=0;left=0;bottom=0;right=0;overflow=hidden;" vertex="1" parent="47uoucX9Yz7AY1I-daVj-29">
          <mxGeometry width="131" height="55" as="geometry">
            <mxRectangle width="131" height="55" as="alternateBounds" />
          </mxGeometry>
        </mxCell>
        <mxCell id="47uoucX9Yz7AY1I-daVj-31" value="Базовый пользователь" style="shape=partialRectangle;html=1;whiteSpace=wrap;connectable=0;fillColor=none;top=0;left=0;bottom=0;right=0;overflow=hidden;" vertex="1" parent="47uoucX9Yz7AY1I-daVj-29">
          <mxGeometry x="131" width="147" height="55" as="geometry">
            <mxRectangle width="147" height="55" as="alternateBounds" />
          </mxGeometry>
        </mxCell>
        <mxCell id="47uoucX9Yz7AY1I-daVj-32" value="" style="shape=partialRectangle;html=1;whiteSpace=wrap;connectable=0;fillColor=none;top=0;left=0;bottom=0;right=0;overflow=hidden;pointerEvents=1;" vertex="1" parent="47uoucX9Yz7AY1I-daVj-29">
          <mxGeometry x="278" width="20" height="55" as="geometry">
            <mxRectangle width="20" height="55" as="alternateBounds" />
          </mxGeometry>
        </mxCell>
        <mxCell id="47uoucX9Yz7AY1I-daVj-37" value="" style="shape=tableRow;horizontal=0;startSize=0;swimlaneHead=0;swimlaneBody=0;top=0;left=0;bottom=0;right=0;collapsible=0;dropTarget=0;fillColor=none;points=[[0,0.5],[1,0.5]];portConstraint=eastwest;" vertex="1" parent="47uoucX9Yz7AY1I-daVj-4">
          <mxGeometry y="164" width="298" height="55" as="geometry" />
        </mxCell>
        <mxCell id="47uoucX9Yz7AY1I-daVj-38" value="Просмотр и использование своих пропусков" style="shape=partialRectangle;html=1;whiteSpace=wrap;connectable=0;fillColor=none;top=0;left=0;bottom=0;right=0;overflow=hidden;" vertex="1" parent="47uoucX9Yz7AY1I-daVj-37">
          <mxGeometry width="131" height="55" as="geometry">
            <mxRectangle width="131" height="55" as="alternateBounds" />
          </mxGeometry>
        </mxCell>
        <mxCell id="47uoucX9Yz7AY1I-daVj-39" value="Базовый пользователь" style="shape=partialRectangle;html=1;whiteSpace=wrap;connectable=0;fillColor=none;top=0;left=0;bottom=0;right=0;overflow=hidden;" vertex="1" parent="47uoucX9Yz7AY1I-daVj-37">
          <mxGeometry x="131" width="147" height="55" as="geometry">
            <mxRectangle width="147" height="55" as="alternateBounds" />
          </mxGeometry>
        </mxCell>
        <mxCell id="47uoucX9Yz7AY1I-daVj-40" value="" style="shape=partialRectangle;html=1;whiteSpace=wrap;connectable=0;fillColor=none;top=0;left=0;bottom=0;right=0;overflow=hidden;pointerEvents=1;" vertex="1" parent="47uoucX9Yz7AY1I-daVj-37">
          <mxGeometry x="278" width="20" height="55" as="geometry">
            <mxRectangle width="20" height="55" as="alternateBounds" />
          </mxGeometry>
        </mxCell>
        <mxCell id="47uoucX9Yz7AY1I-daVj-49" value="" style="shape=tableRow;horizontal=0;startSize=0;swimlaneHead=0;swimlaneBody=0;top=0;left=0;bottom=0;right=0;collapsible=0;dropTarget=0;fillColor=none;points=[[0,0.5],[1,0.5]];portConstraint=eastwest;" vertex="1" parent="47uoucX9Yz7AY1I-daVj-4">
          <mxGeometry y="219" width="298" height="54" as="geometry" />
        </mxCell>
        <mxCell id="47uoucX9Yz7AY1I-daVj-50" value="Просмотр желающих получить пропуск" style="shape=partialRectangle;html=1;whiteSpace=wrap;connectable=0;fillColor=none;top=0;left=0;bottom=0;right=0;overflow=hidden;" vertex="1" parent="47uoucX9Yz7AY1I-daVj-49">
          <mxGeometry width="131" height="54" as="geometry">
            <mxRectangle width="131" height="54" as="alternateBounds" />
          </mxGeometry>
        </mxCell>
        <mxCell id="47uoucX9Yz7AY1I-daVj-51" value="Уполномоченное лицо, Сотрудник службы безопасности" style="shape=partialRectangle;html=1;whiteSpace=wrap;connectable=0;fillColor=none;top=0;left=0;bottom=0;right=0;overflow=hidden;" vertex="1" parent="47uoucX9Yz7AY1I-daVj-49">
          <mxGeometry x="131" width="147" height="54" as="geometry">
            <mxRectangle width="147" height="54" as="alternateBounds" />
          </mxGeometry>
        </mxCell>
        <mxCell id="47uoucX9Yz7AY1I-daVj-52" value="" style="shape=partialRectangle;html=1;whiteSpace=wrap;connectable=0;fillColor=none;top=0;left=0;bottom=0;right=0;overflow=hidden;" vertex="1" parent="47uoucX9Yz7AY1I-daVj-49">
          <mxGeometry x="278" width="20" height="54" as="geometry">
            <mxRectangle width="20" height="54" as="alternateBounds" />
          </mxGeometry>
        </mxCell>
        <mxCell id="47uoucX9Yz7AY1I-daVj-9" value="" style="shape=tableRow;horizontal=0;startSize=0;swimlaneHead=0;swimlaneBody=0;top=0;left=0;bottom=0;right=0;collapsible=0;dropTarget=0;fillColor=none;points=[[0,0.5],[1,0.5]];portConstraint=eastwest;" vertex="1" parent="47uoucX9Yz7AY1I-daVj-4">
          <mxGeometry y="273" width="298" height="55" as="geometry" />
        </mxCell>
        <mxCell id="47uoucX9Yz7AY1I-daVj-10" value="Создание заявки на пропуска" style="shape=partialRectangle;html=1;whiteSpace=wrap;connectable=0;fillColor=none;top=0;left=0;bottom=0;right=0;overflow=hidden;" vertex="1" parent="47uoucX9Yz7AY1I-daVj-9">
          <mxGeometry width="131" height="55" as="geometry">
            <mxRectangle width="131" height="55" as="alternateBounds" />
          </mxGeometry>
        </mxCell>
        <mxCell id="47uoucX9Yz7AY1I-daVj-11" value="Уполномоченное лицо, Сотрудник службы безопасности" style="shape=partialRectangle;html=1;whiteSpace=wrap;connectable=0;fillColor=none;top=0;left=0;bottom=0;right=0;overflow=hidden;" vertex="1" parent="47uoucX9Yz7AY1I-daVj-9">
          <mxGeometry x="131" width="147" height="55" as="geometry">
            <mxRectangle width="147" height="55" as="alternateBounds" />
          </mxGeometry>
        </mxCell>
        <mxCell id="47uoucX9Yz7AY1I-daVj-12" value="" style="shape=partialRectangle;html=1;whiteSpace=wrap;connectable=0;fillColor=none;top=0;left=0;bottom=0;right=0;overflow=hidden;" vertex="1" parent="47uoucX9Yz7AY1I-daVj-9">
          <mxGeometry x="278" width="20" height="55" as="geometry">
            <mxRectangle width="20" height="55" as="alternateBounds" />
          </mxGeometry>
        </mxCell>
        <mxCell id="47uoucX9Yz7AY1I-daVj-17" value="" style="shape=tableRow;horizontal=0;startSize=0;swimlaneHead=0;swimlaneBody=0;top=0;left=0;bottom=0;right=0;collapsible=0;dropTarget=0;fillColor=none;points=[[0,0.5],[1,0.5]];portConstraint=eastwest;" vertex="1" parent="47uoucX9Yz7AY1I-daVj-4">
          <mxGeometry y="328" width="298" height="55" as="geometry" />
        </mxCell>
        <mxCell id="47uoucX9Yz7AY1I-daVj-18" value="Просмотр статуса своей заявки" style="shape=partialRectangle;html=1;whiteSpace=wrap;connectable=0;fillColor=none;top=0;left=0;bottom=0;right=0;overflow=hidden;" vertex="1" parent="47uoucX9Yz7AY1I-daVj-17">
          <mxGeometry width="131" height="55" as="geometry">
            <mxRectangle width="131" height="55" as="alternateBounds" />
          </mxGeometry>
        </mxCell>
        <mxCell id="47uoucX9Yz7AY1I-daVj-19" value="Уполномоченное лицо, Сотрудник службы безопасности" style="shape=partialRectangle;html=1;whiteSpace=wrap;connectable=0;fillColor=none;top=0;left=0;bottom=0;right=0;overflow=hidden;" vertex="1" parent="47uoucX9Yz7AY1I-daVj-17">
          <mxGeometry x="131" width="147" height="55" as="geometry">
            <mxRectangle width="147" height="55" as="alternateBounds" />
          </mxGeometry>
        </mxCell>
        <mxCell id="47uoucX9Yz7AY1I-daVj-20" value="" style="shape=partialRectangle;html=1;whiteSpace=wrap;connectable=0;fillColor=none;top=0;left=0;bottom=0;right=0;overflow=hidden;pointerEvents=1;" vertex="1" parent="47uoucX9Yz7AY1I-daVj-17">
          <mxGeometry x="278" width="20" height="55" as="geometry">
            <mxRectangle width="20" height="55" as="alternateBounds" />
          </mxGeometry>
        </mxCell>
        <mxCell id="47uoucX9Yz7AY1I-daVj-25" value="" style="shape=tableRow;horizontal=0;startSize=0;swimlaneHead=0;swimlaneBody=0;top=0;left=0;bottom=0;right=0;collapsible=0;dropTarget=0;fillColor=none;points=[[0,0.5],[1,0.5]];portConstraint=eastwest;" vertex="1" parent="47uoucX9Yz7AY1I-daVj-4">
          <mxGeometry y="383" width="298" height="54" as="geometry" />
        </mxCell>
        <mxCell id="47uoucX9Yz7AY1I-daVj-26" value="Редактирование заявки" style="shape=partialRectangle;html=1;whiteSpace=wrap;connectable=0;fillColor=none;top=0;left=0;bottom=0;right=0;overflow=hidden;" vertex="1" parent="47uoucX9Yz7AY1I-daVj-25">
          <mxGeometry width="131" height="54" as="geometry">
            <mxRectangle width="131" height="54" as="alternateBounds" />
          </mxGeometry>
        </mxCell>
        <mxCell id="47uoucX9Yz7AY1I-daVj-27" value="Уполномоченное лицо, Сотрудник службы безопасности" style="shape=partialRectangle;html=1;whiteSpace=wrap;connectable=0;fillColor=none;top=0;left=0;bottom=0;right=0;overflow=hidden;" vertex="1" parent="47uoucX9Yz7AY1I-daVj-25">
          <mxGeometry x="131" width="147" height="54" as="geometry">
            <mxRectangle width="147" height="54" as="alternateBounds" />
          </mxGeometry>
        </mxCell>
        <mxCell id="47uoucX9Yz7AY1I-daVj-28" value="" style="shape=partialRectangle;html=1;whiteSpace=wrap;connectable=0;fillColor=none;top=0;left=0;bottom=0;right=0;overflow=hidden;pointerEvents=1;" vertex="1" parent="47uoucX9Yz7AY1I-daVj-25">
          <mxGeometry x="278" width="20" height="54" as="geometry">
            <mxRectangle width="20" height="54" as="alternateBounds" />
          </mxGeometry>
        </mxCell>
        <mxCell id="47uoucX9Yz7AY1I-daVj-21" value="" style="shape=tableRow;horizontal=0;startSize=0;swimlaneHead=0;swimlaneBody=0;top=0;left=0;bottom=0;right=0;collapsible=0;dropTarget=0;fillColor=none;points=[[0,0.5],[1,0.5]];portConstraint=eastwest;" vertex="1" parent="47uoucX9Yz7AY1I-daVj-4">
          <mxGeometry y="437" width="298" height="55" as="geometry" />
        </mxCell>
        <mxCell id="47uoucX9Yz7AY1I-daVj-22" value="Отклонение заявки" style="shape=partialRectangle;html=1;whiteSpace=wrap;connectable=0;fillColor=none;top=0;left=0;bottom=0;right=0;overflow=hidden;" vertex="1" parent="47uoucX9Yz7AY1I-daVj-21">
          <mxGeometry width="131" height="55" as="geometry">
            <mxRectangle width="131" height="55" as="alternateBounds" />
          </mxGeometry>
        </mxCell>
        <mxCell id="47uoucX9Yz7AY1I-daVj-23" value="Сотрудник службы безопасности" style="shape=partialRectangle;html=1;whiteSpace=wrap;connectable=0;fillColor=none;top=0;left=0;bottom=0;right=0;overflow=hidden;" vertex="1" parent="47uoucX9Yz7AY1I-daVj-21">
          <mxGeometry x="131" width="147" height="55" as="geometry">
            <mxRectangle width="147" height="55" as="alternateBounds" />
          </mxGeometry>
        </mxCell>
        <mxCell id="47uoucX9Yz7AY1I-daVj-24" value="" style="shape=partialRectangle;html=1;whiteSpace=wrap;connectable=0;fillColor=none;top=0;left=0;bottom=0;right=0;overflow=hidden;pointerEvents=1;" vertex="1" parent="47uoucX9Yz7AY1I-daVj-21">
          <mxGeometry x="278" width="20" height="55" as="geometry">
            <mxRectangle width="20" height="55" as="alternateBounds" />
          </mxGeometry>
        </mxCell>
        <mxCell id="47uoucX9Yz7AY1I-daVj-13" value="" style="shape=tableRow;horizontal=0;startSize=0;swimlaneHead=0;swimlaneBody=0;top=0;left=0;bottom=0;right=0;collapsible=0;dropTarget=0;fillColor=none;points=[[0,0.5],[1,0.5]];portConstraint=eastwest;" vertex="1" parent="47uoucX9Yz7AY1I-daVj-4">
          <mxGeometry y="492" width="298" height="55" as="geometry" />
        </mxCell>
        <mxCell id="47uoucX9Yz7AY1I-daVj-14" value="Принятие заявки" style="shape=partialRectangle;html=1;whiteSpace=wrap;connectable=0;fillColor=none;top=0;left=0;bottom=0;right=0;overflow=hidden;" vertex="1" parent="47uoucX9Yz7AY1I-daVj-13">
          <mxGeometry width="131" height="55" as="geometry">
            <mxRectangle width="131" height="55" as="alternateBounds" />
          </mxGeometry>
        </mxCell>
        <mxCell id="47uoucX9Yz7AY1I-daVj-15" value="Сотрудник службы безопасности" style="shape=partialRectangle;html=1;whiteSpace=wrap;connectable=0;fillColor=none;top=0;left=0;bottom=0;right=0;overflow=hidden;" vertex="1" parent="47uoucX9Yz7AY1I-daVj-13">
          <mxGeometry x="131" width="147" height="55" as="geometry">
            <mxRectangle width="147" height="55" as="alternateBounds" />
          </mxGeometry>
        </mxCell>
        <mxCell id="47uoucX9Yz7AY1I-daVj-16" value="" style="shape=partialRectangle;html=1;whiteSpace=wrap;connectable=0;fillColor=none;top=0;left=0;bottom=0;right=0;overflow=hidden;pointerEvents=1;" vertex="1" parent="47uoucX9Yz7AY1I-daVj-13">
          <mxGeometry x="278" width="20" height="55" as="geometry">
            <mxRectangle width="20" height="55" as="alternateBounds" />
          </mxGeometry>
        </mxCell>
        <mxCell id="47uoucX9Yz7AY1I-daVj-41" value="" style="shape=tableRow;horizontal=0;startSize=0;swimlaneHead=0;swimlaneBody=0;top=0;left=0;bottom=0;right=0;collapsible=0;dropTarget=0;fillColor=none;points=[[0,0.5],[1,0.5]];portConstraint=eastwest;" vertex="1" parent="47uoucX9Yz7AY1I-daVj-4">
          <mxGeometry y="547" width="298" height="54" as="geometry" />
        </mxCell>
        <mxCell id="47uoucX9Yz7AY1I-daVj-42" value="Просмотр всех заявок" style="shape=partialRectangle;html=1;whiteSpace=wrap;connectable=0;fillColor=none;top=0;left=0;bottom=0;right=0;overflow=hidden;" vertex="1" parent="47uoucX9Yz7AY1I-daVj-41">
          <mxGeometry width="131" height="54" as="geometry">
            <mxRectangle width="131" height="54" as="alternateBounds" />
          </mxGeometry>
        </mxCell>
        <mxCell id="47uoucX9Yz7AY1I-daVj-43" value="Сотрудник службы безопасности" style="shape=partialRectangle;html=1;whiteSpace=wrap;connectable=0;fillColor=none;top=0;left=0;bottom=0;right=0;overflow=hidden;" vertex="1" parent="47uoucX9Yz7AY1I-daVj-41">
          <mxGeometry x="131" width="147" height="54" as="geometry">
            <mxRectangle width="147" height="54" as="alternateBounds" />
          </mxGeometry>
        </mxCell>
        <mxCell id="47uoucX9Yz7AY1I-daVj-44" value="" style="shape=partialRectangle;html=1;whiteSpace=wrap;connectable=0;fillColor=none;top=0;left=0;bottom=0;right=0;overflow=hidden;pointerEvents=1;" vertex="1" parent="47uoucX9Yz7AY1I-daVj-41">
          <mxGeometry x="278" width="20" height="54" as="geometry">
            <mxRectangle width="20" height="54" as="alternateBounds" />
          </mxGeometry>
        </mxCell>
        <mxCell id="47uoucX9Yz7AY1I-daVj-45" value="" style="shape=tableRow;horizontal=0;startSize=0;swimlaneHead=0;swimlaneBody=0;top=0;left=0;bottom=0;right=0;collapsible=0;dropTarget=0;fillColor=none;points=[[0,0.5],[1,0.5]];portConstraint=eastwest;" vertex="1" parent="47uoucX9Yz7AY1I-daVj-4">
          <mxGeometry y="601" width="298" height="55" as="geometry" />
        </mxCell>
        <mxCell id="47uoucX9Yz7AY1I-daVj-46" value="Просмотр пропусков пользователей" style="shape=partialRectangle;html=1;whiteSpace=wrap;connectable=0;fillColor=none;top=0;left=0;bottom=0;right=0;overflow=hidden;" vertex="1" parent="47uoucX9Yz7AY1I-daVj-45">
          <mxGeometry width="131" height="55" as="geometry">
            <mxRectangle width="131" height="55" as="alternateBounds" />
          </mxGeometry>
        </mxCell>
        <mxCell id="47uoucX9Yz7AY1I-daVj-47" value="Сотрудник службы безопасности" style="shape=partialRectangle;html=1;whiteSpace=wrap;connectable=0;fillColor=none;top=0;left=0;bottom=0;right=0;overflow=hidden;" vertex="1" parent="47uoucX9Yz7AY1I-daVj-45">
          <mxGeometry x="131" width="147" height="55" as="geometry">
            <mxRectangle width="147" height="55" as="alternateBounds" />
          </mxGeometry>
        </mxCell>
        <mxCell id="47uoucX9Yz7AY1I-daVj-48" value="" style="shape=partialRectangle;html=1;whiteSpace=wrap;connectable=0;fillColor=none;top=0;left=0;bottom=0;right=0;overflow=hidden;pointerEvents=1;" vertex="1" parent="47uoucX9Yz7AY1I-daVj-45">
          <mxGeometry x="278" width="20" height="55" as="geometry">
            <mxRectangle width="20" height="55" as="alternateBounds" />
          </mxGeometry>
        </mxCell>
        <mxCell id="47uoucX9Yz7AY1I-daVj-53" value="" style="shape=tableRow;horizontal=0;startSize=0;swimlaneHead=0;swimlaneBody=0;top=0;left=0;bottom=0;right=0;collapsible=0;dropTarget=0;fillColor=none;points=[[0,0.5],[1,0.5]];portConstraint=eastwest;" vertex="1" parent="47uoucX9Yz7AY1I-daVj-4">
          <mxGeometry y="656" width="298" height="55" as="geometry" />
        </mxCell>
        <mxCell id="47uoucX9Yz7AY1I-daVj-54" value="Поиск по пропускам" style="shape=partialRectangle;html=1;whiteSpace=wrap;connectable=0;fillColor=none;top=0;left=0;bottom=0;right=0;overflow=hidden;" vertex="1" parent="47uoucX9Yz7AY1I-daVj-53">
          <mxGeometry width="131" height="55" as="geometry">
            <mxRectangle width="131" height="55" as="alternateBounds" />
          </mxGeometry>
        </mxCell>
        <mxCell id="47uoucX9Yz7AY1I-daVj-55" value="&lt;span&gt;Сотрудник службы безопасности&lt;/span&gt;" style="shape=partialRectangle;html=1;whiteSpace=wrap;connectable=0;fillColor=none;top=0;left=0;bottom=0;right=0;overflow=hidden;" vertex="1" parent="47uoucX9Yz7AY1I-daVj-53">
          <mxGeometry x="131" width="147" height="55" as="geometry">
            <mxRectangle width="147" height="55" as="alternateBounds" />
          </mxGeometry>
        </mxCell>
        <mxCell id="47uoucX9Yz7AY1I-daVj-56" value="" style="shape=partialRectangle;html=1;whiteSpace=wrap;connectable=0;fillColor=none;top=0;left=0;bottom=0;right=0;overflow=hidden;pointerEvents=1;" vertex="1" parent="47uoucX9Yz7AY1I-daVj-53">
          <mxGeometry x="278" width="20" height="55" as="geometry">
            <mxRectangle width="20" height="55" as="alternateBounds" />
          </mxGeometry>
        </mxCell>
        <mxCell id="47uoucX9Yz7AY1I-daVj-66" value="" style="shape=tableRow;horizontal=0;startSize=0;swimlaneHead=0;swimlaneBody=0;top=0;left=0;bottom=0;right=0;collapsible=0;dropTarget=0;fillColor=none;points=[[0,0.5],[1,0.5]];portConstraint=eastwest;" vertex="1" parent="47uoucX9Yz7AY1I-daVj-4">
          <mxGeometry y="711" width="298" height="54" as="geometry" />
        </mxCell>
        <mxCell id="47uoucX9Yz7AY1I-daVj-67" value="Поиск по заявкам&lt;br&gt;(по статусам)" style="shape=partialRectangle;html=1;whiteSpace=wrap;connectable=0;fillColor=none;top=0;left=0;bottom=0;right=0;overflow=hidden;" vertex="1" parent="47uoucX9Yz7AY1I-daVj-66">
          <mxGeometry width="131" height="54" as="geometry">
            <mxRectangle width="131" height="54" as="alternateBounds" />
          </mxGeometry>
        </mxCell>
        <mxCell id="47uoucX9Yz7AY1I-daVj-68" value="&lt;span&gt;Сотрудник службы безопасности&lt;/span&gt;" style="shape=partialRectangle;html=1;whiteSpace=wrap;connectable=0;fillColor=none;top=0;left=0;bottom=0;right=0;overflow=hidden;" vertex="1" parent="47uoucX9Yz7AY1I-daVj-66">
          <mxGeometry x="131" width="147" height="54" as="geometry">
            <mxRectangle width="147" height="54" as="alternateBounds" />
          </mxGeometry>
        </mxCell>
        <mxCell id="47uoucX9Yz7AY1I-daVj-69" value="" style="shape=partialRectangle;html=1;whiteSpace=wrap;connectable=0;fillColor=none;top=0;left=0;bottom=0;right=0;overflow=hidden;pointerEvents=1;" vertex="1" parent="47uoucX9Yz7AY1I-daVj-66">
          <mxGeometry x="278" width="20" height="54" as="geometry">
            <mxRectangle width="20" height="54" as="alternateBounds" />
          </mxGeometry>
        </mxCell>
        <mxCell id="47uoucX9Yz7AY1I-daVj-70" value="" style="shape=tableRow;horizontal=0;startSize=0;swimlaneHead=0;swimlaneBody=0;top=0;left=0;bottom=0;right=0;collapsible=0;dropTarget=0;fillColor=none;points=[[0,0.5],[1,0.5]];portConstraint=eastwest;" vertex="1" parent="47uoucX9Yz7AY1I-daVj-4">
          <mxGeometry y="765" width="298" height="55" as="geometry" />
        </mxCell>
        <mxCell id="47uoucX9Yz7AY1I-daVj-71" value="Создание аккаунта с особой ролью" style="shape=partialRectangle;html=1;whiteSpace=wrap;connectable=0;fillColor=none;top=0;left=0;bottom=0;right=0;overflow=hidden;" vertex="1" parent="47uoucX9Yz7AY1I-daVj-70">
          <mxGeometry width="131" height="55" as="geometry">
            <mxRectangle width="131" height="55" as="alternateBounds" />
          </mxGeometry>
        </mxCell>
        <mxCell id="47uoucX9Yz7AY1I-daVj-72" value="&lt;span&gt;Администратор&lt;/span&gt;" style="shape=partialRectangle;html=1;whiteSpace=wrap;connectable=0;fillColor=none;top=0;left=0;bottom=0;right=0;overflow=hidden;" vertex="1" parent="47uoucX9Yz7AY1I-daVj-70">
          <mxGeometry x="131" width="147" height="55" as="geometry">
            <mxRectangle width="147" height="55" as="alternateBounds" />
          </mxGeometry>
        </mxCell>
        <mxCell id="47uoucX9Yz7AY1I-daVj-73" value="" style="shape=partialRectangle;html=1;whiteSpace=wrap;connectable=0;fillColor=none;top=0;left=0;bottom=0;right=0;overflow=hidden;pointerEvents=1;" vertex="1" parent="47uoucX9Yz7AY1I-daVj-70">
          <mxGeometry x="278" width="20" height="55" as="geometry">
            <mxRectangle width="20" height="55" as="alternateBounds" />
          </mxGeometry>
        </mxCell>
        <mxCell id="47uoucX9Yz7AY1I-daVj-74" value="&lt;font style=&quot;font-size: 16px&quot;&gt;Базовый пользователь&lt;/font&gt;" style="shape=umlActor;verticalLabelPosition=bottom;verticalAlign=top;html=1;outlineConnect=0;strokeWidth=3;" vertex="1" parent="1">
          <mxGeometry x="410" y="180" width="30" height="60" as="geometry" />
        </mxCell>
        <mxCell id="47uoucX9Yz7AY1I-daVj-76" value="&lt;font style=&quot;font-size: 16px&quot;&gt;Уполномоченное лицо&lt;/font&gt;" style="shape=umlActor;verticalLabelPosition=bottom;verticalAlign=top;html=1;outlineConnect=0;strokeWidth=3;" vertex="1" parent="1">
          <mxGeometry x="410" y="530" width="30" height="60" as="geometry" />
        </mxCell>
      </root>
    </mxGraphModel>
  </diagram>
</mxfile>
